# This file uses centimeters as units for non-parametric coordinates.

mtllib TestWedge.mtl
g default
v 1.000000 0.500000 0.000000
v 0.000000 0.500000 0.000000
v 1.000000 0.500000 1.000000
v 0.000000 -0.500000 1.000000
v 0.000000 0.221489 1.000000
v 0.331007 0.500000 0.000000
v 0.331007 0.500000 1.000000
v -1.000000 -0.500000 0.000000
v -1.000000 0.500000 -1.000000
v 0.000000 0.500000 -1.000000
v -1.000000 0.221489 0.000000
v -1.000000 0.500000 -0.331007
v 0.000000 0.500000 -0.331007
v 1.000000 0.500000 -1.000000
v 0.000000 0.500000 1.000000
v -1.000000 0.500000 0.000000
v 0.331007 0.221489 1.000000
v 0.331007 0.500000 0.000000
v 0.331007 0.500000 1.000000
v -1.000000 0.221489 -0.331007
v -1.000000 0.500000 -0.331007
v 0.000000 0.500000 -0.331007
vt 0.492776 0.755774
vt 0.696676 0.397119
vt 0.675751 0.859798
vt 0.879651 0.501143
vt 0.950284 0.541299
vt 0.746383 0.899953
vt 0.998008 0.457353
vt 0.927376 0.417197
vt 0.441388 0.221630
vt 0.294433 0.368623
vt 0.221664 0.001964
vt 0.074709 0.148958
vt 0.221778 0.880742
vt 0.074785 0.733787
vt 0.441446 0.661020
vt 0.294452 0.514064
vt 0.221722 0.441353
vt 0.661112 0.441296
vt 0.002063 0.221623
vt 0.001992 0.661012
vt 0.294455 0.368645
vt 0.074796 0.148914
vt 0.074701 0.733745
vt 0.294431 0.514086
vt 0.628027 0.943744
vt 0.698659 0.983899
vn 0.000000 1.000000 0.000000
vn 0.000000 1.000000 0.000000
vn 0.000000 1.000000 0.000000
vn 0.000000 1.000000 0.000000
vn 0.000000 1.000000 0.000000
vn 0.000000 1.000000 0.000000
vn 0.000000 1.000000 0.000000
vn 0.000000 1.000000 0.000000
vn 0.000000 1.000000 0.000000
vn 0.000000 1.000000 0.000000
vn 0.000000 1.000000 0.000000
vn 0.000000 1.000000 0.000000
vn 0.000000 1.000000 0.000000
vn 0.000000 1.000000 0.000000
vn 0.000000 1.000000 0.000000
vn 0.000000 1.000000 0.000000
vn 0.000000 1.000000 0.000000
vn 0.000000 1.000000 0.000000
vn 0.000000 1.000000 0.000000
vn 0.000000 1.000000 0.000000
vn 0.000000 1.000000 0.000000
vn 0.000000 1.000000 0.000000
vn 0.000000 1.000000 0.000000
vn 0.000000 1.000000 0.000000
vn -0.707107 0.000000 0.707107
vn -0.707107 0.000000 0.707107
vn -0.707107 0.000000 0.707107
vn -0.707107 0.000000 0.707107
vn -0.707107 0.000000 0.707107
vn -0.707107 0.000000 0.707107
vn 0.000000 1.000000 0.000000
vn 0.000000 1.000000 0.000000
vn 0.000000 1.000000 0.000000
vn -0.707107 0.000000 0.707107
vn -0.707107 0.000000 0.707107
vn -0.707107 0.000000 0.707107
vn -0.707107 0.000000 0.707107
vn -0.707107 0.000000 0.707107
vn -0.707107 0.000000 0.707107
vn 0.000000 1.000000 0.000000
vn 0.000000 1.000000 0.000000
vn 0.000000 1.000000 0.000000
vn 0.000000 1.000000 0.000000
vn 0.000000 1.000000 0.000000
vn 0.000000 1.000000 0.000000
vn 0.000000 0.000000 1.000000
vn 0.000000 0.000000 1.000000
vn 0.000000 0.000000 1.000000
vn 0.000000 0.000000 1.000000
vn 0.000000 0.000000 1.000000
vn 0.000000 0.000000 1.000000
vn -1.000000 0.000000 0.000000
vn -1.000000 0.000000 0.000000
vn -1.000000 0.000000 0.000000
vn -1.000000 0.000000 0.000000
vn -1.000000 0.000000 0.000000
vn -1.000000 0.000000 0.000000
vn 0.000000 1.000000 0.000000
vn 0.000000 1.000000 0.000000
vn 0.000000 1.000000 0.000000
vn 0.000000 1.000000 0.000000
vn 0.000000 1.000000 0.000000
vn 0.000000 1.000000 0.000000
s off
g TestWedge
usemtl initialShadingGroup
f 1/9/1 6/10/2 3/11/3
f 3/11/4 6/10/5 7/12/6
f 9/13/7 12/14/8 10/15/9
f 10/15/10 12/14/11 13/16/12
f 2/17/13 6/10/14 13/16/15
f 6/10/16 1/9/17 13/16/18
f 13/16/19 1/9/20 10/15/21
f 10/15/22 1/9/23 14/18/24
f 8/1/25 4/2/26 11/3/27
f 11/3/28 4/2/29 5/4/30
f 15/19/31 2/17/32 16/20/33
f 15/5/34 16/6/35 5/4/36
f 5/4/37 16/6/38 11/3/39
f 2/17/40 15/19/41 18/21/42
f 18/21/43 15/19/44 19/22/45
f 15/5/46 5/4/47 19/7/48
f 19/7/49 5/4/50 17/8/51
f 11/3/52 16/6/53 20/25/54
f 20/25/55 16/6/56 21/26/57
f 16/20/58 2/17/59 21/23/60
f 21/23/61 2/17/62 22/24/63
