# This file uses centimeters as units for non-parametric coordinates.

mtllib TestCorner.mtl
g default
v 0.000000 -0.500000 0.000000
v -1.000000 0.500000 0.000000
v -0.016278 0.428275 0.016278
v -1.000000 0.500000 -1.000000
v -0.032556 0.428275 -1.000000
v 0.000000 -0.500000 -1.000000
v -0.117609 0.481366 0.000000
v -0.117609 0.481366 -1.000000
v 0.000000 0.221489 0.000000
v 0.000000 0.221489 -1.000000
v 0.003255 0.334732 -0.003255
v 0.006510 0.334732 -1.000000
v -0.331007 0.500000 0.000000
v -0.331007 0.500000 -1.000000
v 1.000000 -0.500000 0.000000
v 1.000000 0.500000 1.000000
v 1.000000 0.428275 0.032556
v 0.000000 0.500000 1.000000
v 1.000000 0.481366 0.117609
v 0.000000 0.481366 0.117609
v 1.000000 0.221489 0.000000
v 1.000000 0.334732 -0.006510
v 1.000000 0.500000 0.331007
v 0.000000 0.500000 0.331007
v -1.000000 0.500000 1.000000
vt 0.901331 0.351683
vt 0.933744 0.350581
vt 0.912565 0.670370
vt 0.943326 0.675614
vt 0.645702 0.680857
vt 0.634387 0.361132
vt 0.876380 0.672693
vt 0.865065 0.352968
vt 0.320956 0.001992
vt 0.318340 0.212390
vt 0.001883 0.006858
vt 0.004113 0.218152
vt 0.318827 0.314688
vt 0.005859 0.317695
vt 0.317223 0.278895
vt 0.005181 0.286041
vt 0.609131 0.647041
vt 0.398990 0.633391
vt 0.631397 0.329581
vt 0.421278 0.320691
vt 0.331357 0.629152
vt 0.299790 0.626772
vt 0.354491 0.318207
vt 0.639675 0.010934
vt 0.299698 0.995660
vt 0.323230 0.640115
vt 0.335861 0.998008
vt 0.357766 0.635319
vt 0.001883 0.975906
vt 0.025541 0.619206
vt 0.259238 0.992975
vt 0.282896 0.636274
vn 0.000000 1.000000 0.000000
vn 0.016823 0.999857 -0.001800
vn 0.000000 1.000000 0.000000
vn 0.000000 1.000000 0.000000
vn 0.016823 0.999857 -0.001800
vn 0.021112 0.999777 0.000000
vn 0.987839 0.155446 0.003226
vn 0.761759 0.647860 0.000674
vn 0.701293 0.127969 -0.701293
vn 0.701293 0.127969 -0.701293
vn 0.761759 0.647860 0.000674
vn 0.460988 0.758275 -0.460987
vn 0.460988 0.758275 -0.460987
vn 0.761759 0.647860 0.000674
vn 0.222553 0.974732 -0.019189
vn 0.222553 0.974732 -0.019189
vn 0.761759 0.647860 0.000674
vn 0.233670 0.972316 0.000000
vn 1.000000 0.000000 0.000000
vn 1.000000 0.000000 0.000000
vn 0.707096 -0.005428 -0.707096
vn 0.707096 -0.005428 -0.707096
vn 1.000000 0.000000 0.000000
vn 0.999972 -0.007498 0.000410
vn 0.707096 -0.005428 -0.707096
vn 0.999972 -0.007498 0.000410
vn 0.701293 0.127969 -0.701293
vn 0.701293 0.127969 -0.701293
vn 0.999972 -0.007498 0.000410
vn 0.987839 0.155446 0.003226
vn 0.016823 0.999857 -0.001800
vn 0.222553 0.974732 -0.019189
vn 0.021112 0.999777 0.000000
vn 0.021112 0.999777 0.000000
vn 0.222553 0.974732 -0.019189
vn 0.233670 0.972316 0.000000
vn 0.000000 1.000000 0.000000
vn 0.000000 0.999777 -0.021112
vn 0.000000 1.000000 0.000000
vn 0.000000 1.000000 0.000000
vn 0.000000 0.999777 -0.021112
vn 0.001732 0.999925 -0.012149
vn -0.003226 0.155446 -0.987839
vn 0.701293 0.127969 -0.701293
vn -0.000674 0.647861 -0.761758
vn -0.000674 0.647861 -0.761758
vn 0.701293 0.127969 -0.701293
vn 0.460988 0.758275 -0.460987
vn 0.000000 0.972316 -0.233670
vn -0.000674 0.647861 -0.761758
vn 0.027921 0.978299 -0.205308
vn 0.027921 0.978299 -0.205308
vn -0.000674 0.647861 -0.761758
vn 0.460988 0.758275 -0.460987
vn 0.000000 0.000000 -1.000000
vn 0.000000 0.000000 -1.000000
vn -0.000410 -0.007498 -0.999972
vn -0.000410 -0.007498 -0.999972
vn 0.000000 0.000000 -1.000000
vn 0.707096 -0.005428 -0.707096
vn 0.707096 -0.005428 -0.707096
vn 0.701293 0.127969 -0.701293
vn -0.000410 -0.007498 -0.999972
vn -0.000410 -0.007498 -0.999972
vn 0.701293 0.127969 -0.701293
vn -0.003226 0.155446 -0.987839
vn 0.000000 0.999777 -0.021112
vn 0.000000 0.972316 -0.233670
vn 0.001732 0.999925 -0.012149
vn 0.001732 0.999925 -0.012149
vn 0.000000 0.972316 -0.233670
vn 0.027921 0.978299 -0.205308
vn 0.027921 0.978299 -0.205308
vn 0.460988 0.758275 -0.460987
vn 0.222553 0.974732 -0.019189
vn 0.222553 0.974732 -0.019189
vn 0.016823 0.999857 -0.001800
vn 0.027921 0.978299 -0.205308
vn 0.027921 0.978299 -0.205308
vn 0.016823 0.999857 -0.001800
vn 0.001732 0.999925 -0.012149
vn 0.016823 0.999857 -0.001800
vn 0.000000 1.000000 0.000000
vn 0.001732 0.999925 -0.012149
vn 0.001732 0.999925 -0.012149
vn 0.000000 1.000000 0.000000
vn 0.000000 1.000000 0.000000
vn 0.000000 1.000000 0.000000
vn 0.000000 1.000000 0.000000
vn 0.000000 1.000000 0.000000
s off
g TestCorner
usemtl initialShadingGroup
f 2/9/1 13/10/2 4/11/3
f 4/11/4 13/10/5 14/12/6
f 12/1/7 5/2/8 11/3/9
f 11/3/10 5/2/11 3/4/12
f 3/13/13 5/14/14 7/15/15
f 7/15/16 5/14/17 8/16/18
f 1/5/19 6/6/20 9/7/21
f 9/7/22 6/6/23 10/8/24
f 9/7/25 10/8/26 11/3/27
f 11/3/28 10/8/29 12/1/30
f 13/10/31 7/15/32 14/12/33
f 14/12/34 7/15/35 8/16/36
f 16/17/37 23/18/38 18/19/39
f 18/19/40 23/18/41 24/20/42
f 22/25/43 11/26/44 17/27/45
f 17/27/46 11/26/47 3/28/48
f 19/21/49 17/22/50 20/23/51
f 20/23/52 17/22/53 3/13/54
f 15/29/55 1/30/56 21/31/57
f 21/31/58 1/30/59 9/32/60
f 9/32/61 11/26/62 21/31/63
f 21/31/64 11/26/65 22/25/66
f 23/18/67 19/21/68 24/20/69
f 24/20/70 19/21/71 20/23/72
f 20/23/73 3/13/74 7/15/75
f 7/15/76 13/10/77 20/23/78
f 20/23/79 13/10/80 24/20/81
f 13/10/82 2/9/83 24/20/84
f 24/20/85 2/9/86 18/19/87
f 18/19/88 2/9/89 25/24/90
